<?xml version="1.0" encoding="utf-8"?>
  <svg viewBox="0 0 19 16" xmlns="http://www.w3.org/2000/svg" xmlns:xlink="http://www.w3.org/1999/xlink">
    <style>:root>svg{display:none}:root>svg:target{display:block}</style>
    <svg id="field-control-breaf" fill="none" viewBox="0 0 19 14"  xmlns="http://www.w3.org/2000/svg">
      <path stroke-width="1.3" d="M.65 6v8m17-8v8M0 13.35h18m-18-12h18m-.65 1.83L9 9.68.65 3.18V1.65h16.7v1.53Z"/>
    </svg>
    <svg id="field-control-phone" fill="none" viewBox="0 0 16 16" xmlns="http://www.w3.org/2000/svg">
      <path stroke-linecap="round" stroke-linejoin="round" d="M7 8h8.5m0 0L13 5.5M15.5 8 13 10.5M5.5.5v5h-3v5h3v5H3c-1.5 0-2.5-1-2.5-2.5V3C.5 1.5 1.5.5 3 .5h2.5Z"/>
    <svg id="HTML-academy" xmlns="http://www.w3.org/2000/svg" fill="none" viewBox="0 0 27 34">
      <path fill="currentColor" d="M13.64.02 13.5 0 0 1.4v24.61L13.5 34 27 26.01V1.41L13.64 0Zm11.6 25L13.5 31.96 1.77 25.02v-10.1l11.68 6.93.02 1.25-8.02-4.75v1.23l8.04 4.8.02 1.3-8.05-4.76v1.22l8.04 4.81 8.12-4.83V16.9l3.62-2.15v10.26Zm0-11.57L22 15.33l-1.48.88-7.06-4.19-.01 1.23 6.04 3.57-.06.03-.13.07-.86.5-4.98-2.95-.01 1.22 3.93 2.33-.93.61-.02.01-2.97-1.74-.01 1.23 1.94 1.13-1.98 1.19L1.8 13.58l11.63-6.96 11.8 6.83Zm0-1.22L13.43 5.3 1.77 12.22V2.99L13.5 1.76 25.23 3v9.24Z"/>
    </svg>
  </svg>
</svg>
